<?xml version="1.0" encoding="utf-8"?>
<!-- Generator: Adobe Illustrator 25.4.1, SVG Export Plug-In . SVG Version: 6.00 Build 0)  -->
<svg version="1.1" xmlns="http://www.w3.org/2000/svg" xmlns:xlink="http://www.w3.org/1999/xlink" x="0px" y="0px"
	 viewBox="0 0 1260 1080" style="enable-background:new 0 0 1260 1080;" xml:space="preserve">
<style type="text/css">
	.st0{fill:#FFFFFF;stroke:#000000;stroke-miterlimit:10;}
	.st1{fill:#2C2B52;stroke:#000000;stroke-miterlimit:10;}
	.st2{fill:#2C2A59;stroke:#2C2C5B;stroke-miterlimit:10;}
	.st3{fill:#2C2C5B;stroke:#2C2C5B;stroke-miterlimit:10;}
	.st4{fill:#2C2C5B;}
	.st5{fill:#2D2C5B;stroke:#2C2C5B;stroke-miterlimit:10;}
	.st6{fill:#292654;stroke:#2C2C5B;stroke-miterlimit:10;}
	.st7{fill:#2F2E5E;stroke:#2C2C5B;stroke-miterlimit:10;}
	.st8{clip-path:url(#SVGID_00000147202205614659428660000010478587141825857428_);fill:#FFFFFF;}
	.twinkle1 {
		animation: twinkle1 2s linear infinite;
	}

	.twinkle2 {
		animation:twinkle2 1s linear infinite;
	}

@keyframes twinkle1 {
	
	44% { transform:  opacity: 1; }
	47% { transform:  opacity: .7; }
	50% { transform:  opacity: 1;}
	53% { transform:  opacity: .7;}
	56% { transform:  opacity: 1;}
	
}

@keyframes twinkle2 {
	
	30% { transform:  opacity: 1; }
	35% { transform:  opacity: .7; }
	50% { transform:  opacity: 1;}
	53% { transform:  opacity: .7;}
	56% { transform:  opacity: 1;}
	
}
	

</style>
<g id="Layer_1">
	<path class="st0" d="M1327.84,395.85"/>
	<rect class="st1" width="1260" height="1080"/>
</g>
<g id="Layer_2">
	<path class="st2" d="M1260.32,682.41c-122.41-92.99-226.81-119.4-293.56-127.99c-234.58-30.19-360.27,113.75-647.99,128.78
		c-139.46,7.28-252.77-19.07-318.45-38.41c-0.43,22.67-0.85,45.33-1.28,68c101.22,46.5,188.68,66.53,253.16,75.95
		c252.28,36.86,392.53-53.63,728.12-75.95c121.13-8.06,219.77-4.04,279.99,0C1260.32,702.67,1260.32,692.54,1260.32,682.41z"/>
	<path class="st3" d="M1260,408.51c-59.61,161.16-137.3,215.27-191.66,236.71c-205.09,80.9-399.11-176.54-796.2-193.67
		C153.3,446.42,56.68,464.56,0,478.13c0-76.37,0-152.74,0-229.11c59.75-21.27,156.83-50.02,278.47-58.23
		c284.46-19.2,412.18,93.56,629.11,58.23c85.99-14,211.39-55.41,352.42-188.61C1260,176.44,1260,292.47,1260,408.51z"/>
	<g>
		<g>
			<path class="st4" d="M1325.3,498.35c3.22,0,3.22-5,0-5C1322.09,493.35,1322.08,498.35,1325.3,498.35L1325.3,498.35z"/>
		</g>
	</g>
	<path class="st5" d="M1260,974.94c-65.52,27.23-167.84,61.67-295.46,69.62c-221.97,13.83-326.45-64.57-528.02-69.62
		C333.96,972.37,184.58,988.25,0,1080c0-67.51,0-135.02,0-202.53c53.21,2.55,134.21,4.69,232.61,0
		c256.21-12.2,367.39-58.12,528.14-68.35c116.91-7.44,286.47,2.31,499.25,87.34C1260,922.62,1260,948.78,1260,974.94z"/>
	<path class="st6" d="M1444.29,666.73"/>
	<path class="st7" d="M1260.64,43.95c-63.75-23.22-160.68-52.12-280.91-62.03C720.7-39.41,593.43,47.2,307.95,43.95
		C233.37,43.1,127.84,35.89,0.64,6.33C0.21,29-0.21,51.66-0.64,74.33c56.49,26.65,143.43,60.83,253.16,75.95
		c191,26.32,315.63-23.78,508.22-55.7c116.95-19.38,286.38-36.61,499.89-20.25C1260.64,64.2,1260.64,54.08,1260.64,43.95z"/>
</g>
<g id="Layer_3">
	<defs>
		<rect id="SVGID_1_" width="1260" height="1080"/>
	</defs>
	<clipPath id="SVGID_00000122713550101138448350000007690622387238484666_">
		<use xlink:href="#SVGID_1_"  style="overflow:visible;"/>
	</clipPath>
	<path class="twinkle1" style="clip-path:url(#SVGID_00000122713550101138448350000007690622387238484666_);fill:#FFFFFF;" d="M787.88,500.4
		l-3.31-1.14c-0.2-0.57-0.56-1.04-1-1.33l-1.03-4.87l-0.89,4.78c-0.52,0.28-0.93,0.81-1.15,1.46l-3.29,1.09l3.21,0.83
		c0.21,0.85,0.73,1.52,1.4,1.81l0.72,4.7l0.93-4.8c0.53-0.31,0.95-0.87,1.16-1.56L787.88,500.4z"/>
	<path class="twinkle2" style="clip-path:url(#SVGID_00000122713550101138448350000007690622387238484666_);fill:#FFFFFF;" d="M341.01,248.11
		l-2.61-0.86c-0.16-0.43-0.44-0.78-0.79-1l-0.82-3.65l-0.71,3.59c-0.41,0.21-0.74,0.61-0.91,1.09l-2.6,0.82l2.54,0.62
		c0.17,0.64,0.58,1.14,1.11,1.36l0.57,3.53l0.74-3.61c0.42-0.23,0.75-0.65,0.91-1.17L341.01,248.11z"/>
	<path class="twinkle1" style="clip-path:url(#SVGID_00000122713550101138448350000007690622387238484666_);fill:#FFFFFF;" d="M930.97,190.37
		l-3.89-0.99c-0.24-0.49-0.66-0.9-1.17-1.15l-1.22-4.21l-1.05,4.13c-0.61,0.25-1.1,0.7-1.36,1.26l-3.87,0.95l3.78,0.72
		c0.25,0.73,0.86,1.31,1.65,1.56l0.85,4.06l1.1-4.15c0.63-0.27,1.12-0.75,1.36-1.35L930.97,190.37z"/>
	<path class="twinkle2" style="clip-path:url(#SVGID_00000122713550101138448350000007690622387238484666_);fill:#FFFFFF;" d="M594.82,162.09
		l-0.69-0.69c-0.04-0.34-0.12-0.63-0.21-0.8l-0.22-2.94l-0.19,2.89c-0.11,0.17-0.2,0.49-0.24,0.88l-0.69,0.66l0.67,0.5
		c0.04,0.51,0.15,0.92,0.29,1.09l0.15,2.84l0.2-2.9c0.11-0.19,0.2-0.53,0.24-0.94L594.82,162.09z"/>
	<path class="twinkle1" style="clip-path:url(#SVGID_00000122713550101138448350000007690622387238484666_);fill:#FFFFFF;" d="M250.73,1008.14
		l-3.98-1.93c-0.25-0.96-0.67-1.76-1.2-2.25l-1.24-8.24l-1.07,8.1c-0.62,0.48-1.12,1.37-1.39,2.47l-3.96,1.85l3.87,1.4
		c0.25,1.43,0.88,2.57,1.69,3.06l0.87,7.96l1.12-8.14c0.64-0.52,1.15-1.47,1.39-2.65L250.73,1008.14z"/>
	<path class="twinkle2" style="clip-path:url(#SVGID_00000122713550101138448350000007690622387238484666_);fill:#FFFFFF;" d="M921.98,857.19
		l-3.92-0.74c-0.24-0.37-0.66-0.67-1.18-0.86l-1.23-3.16l-1.06,3.11c-0.61,0.18-1.1,0.52-1.37,0.95l-3.9,0.71l3.81,0.54
		c0.25,0.55,0.87,0.99,1.66,1.17l0.86,3.05l1.1-3.12c0.63-0.2,1.13-0.56,1.37-1.01L921.98,857.19z"/>
	<path class="twinkle1" style="clip-path:url(#SVGID_00000122713550101138448350000007690622387238484666_);fill:#FFFFFF;" d="M391.19,110.88
		l-3.29-1.15c-0.2-0.57-0.55-1.05-0.99-1.34l-1.03-4.91l-0.89,4.82c-0.51,0.29-0.93,0.81-1.15,1.47l-3.27,1.1l3.19,0.84
		c0.21,0.85,0.73,1.53,1.39,1.82l0.72,4.74l0.93-4.84c0.53-0.31,0.95-0.88,1.15-1.58L391.19,110.88z"/>
	<path class="twinkle2" style="clip-path:url(#SVGID_00000122713550101138448350000007690622387238484666_);fill:#FFFFFF;" d="M1162.68,995.72
		l-5.84-3.41c-0.36-1.7-0.98-3.1-1.76-3.97l-1.83-14.56l-1.58,14.31c-0.91,0.85-1.65,2.41-2.04,4.36l-5.81,3.27l5.67,2.48
		c0.37,2.53,1.3,4.54,2.48,5.4l1.28,14.06l1.65-14.37c0.94-0.92,1.68-2.6,2.04-4.68L1162.68,995.72z"/>
	<path class="twinkle1" style="clip-path:url(#SVGID_00000122713550101138448350000007690622387238484666_);fill:#FFFFFF;" d="M244.31,809.31
		l-2.92-0.79c-0.18-0.39-0.49-0.72-0.88-0.92l-0.91-3.36l-0.79,3.3c-0.46,0.2-0.82,0.56-1.02,1.01l-2.9,0.76l2.83,0.57
		c0.19,0.58,0.65,1.05,1.24,1.25l0.64,3.24l0.82-3.32c0.47-0.21,0.84-0.6,1.02-1.08L244.31,809.31z"/>
	<path class="twinkle2" style="clip-path:url(#SVGID_00000122713550101138448350000007690622387238484666_);fill:#FFFFFF;" d="M688.24,13.12
		l-2.61-0.48c-0.16-0.24-0.44-0.44-0.79-0.56l-0.82-2.05l-0.71,2.02c-0.41,0.12-0.74,0.34-0.91,0.62l-2.6,0.46l2.54,0.35
		c0.17,0.36,0.58,0.64,1.11,0.76l0.57,1.98l0.74-2.03c0.42-0.13,0.75-0.37,0.91-0.66L688.24,13.12z"/>
	<path class="twinkle1" style="clip-path:url(#SVGID_00000122713550101138448350000007690622387238484666_);fill:#FFFFFF;" d="M160.75,973.77
		l-3.95-1.44c-0.24-0.72-0.67-1.31-1.19-1.68l-1.24-6.15l-1.07,6.04c-0.62,0.36-1.11,1.02-1.38,1.84l-3.93,1.38l3.84,1.05
		c0.25,1.07,0.88,1.92,1.68,2.28l0.86,5.94l1.11-6.07c0.64-0.39,1.14-1.1,1.38-1.97L160.75,973.77z"/>
	<path class="twinkle2" style="clip-path:url(#SVGID_00000122713550101138448350000007690622387238484666_);fill:#FFFFFF;" d="M1188.97,35.18
		l-5.84-1.71c-0.36-0.85-0.98-1.55-1.76-1.98l-1.83-7.28l-1.58,7.15c-0.91,0.42-1.65,1.21-2.04,2.18l-5.81,1.64l5.67,1.24
		c0.37,1.27,1.3,2.27,2.48,2.7l1.28,7.03l1.65-7.19c0.94-0.46,1.68-1.3,2.04-2.34L1188.97,35.18z"/>
	<path class="twinkle1" style="clip-path:url(#SVGID_00000122713550101138448350000007690622387238484666_);fill:#FFFFFF;" d="M337.06,513.84
		l-1.69-0.76c-0.1-0.38-0.29-0.69-0.51-0.88l-0.53-3.23l-0.46,3.17c-0.27,0.19-0.48,0.54-0.59,0.97l-1.69,0.73l1.65,0.55
		c0.11,0.56,0.38,1.01,0.72,1.2l0.37,3.12l0.48-3.19c0.27-0.2,0.49-0.58,0.59-1.04L337.06,513.84z"/>
	<polygon style="clip-path:url(#SVGID_00000122713550101138448350000007690622387238484666_);fill:#FFFFFF;" points="912.07,346.08 
		910.67,345.42 909.35,346.24 909.52,344.66 908.35,343.62 909.85,343.3 910.45,341.83 911.21,343.21 912.75,343.35 911.71,344.53 	
		"/>
	<polygon style="clip-path:url(#SVGID_00000122713550101138448350000007690622387238484666_);fill:#FFFFFF;" points="867.02,311.81 
		865.62,311.16 864.3,311.98 864.47,310.4 863.3,309.35 864.8,309.03 865.4,307.56 866.16,308.95 867.7,309.08 866.67,310.26 	"/>
	<polygon style="clip-path:url(#SVGID_00000122713550101138448350000007690622387238484666_);fill:#FFFFFF;" points="836.36,269.42 
		835.05,270.25 833.64,269.59 834,271.15 832.97,272.33 834.5,272.46 835.27,273.86 835.86,272.38 837.37,272.06 836.2,271.01 	"/>
	<polygon style="clip-path:url(#SVGID_00000122713550101138448350000007690622387238484666_);fill:#FFFFFF;" points="891.61,369.05 
		890.21,368.39 888.9,369.22 889.06,367.63 887.89,366.59 889.4,366.27 889.99,364.8 890.76,366.18 892.29,366.32 891.26,367.5 	"/>
	<polygon style="clip-path:url(#SVGID_00000122713550101138448350000007690622387238484666_);fill:#FFFFFF;" points="855.65,336.65 
		854.25,335.99 852.94,336.82 853.1,335.23 851.93,334.19 853.44,333.87 854.03,332.4 854.79,333.79 856.33,333.92 855.3,335.1 	"/>
	<polygon style="clip-path:url(#SVGID_00000122713550101138448350000007690622387238484666_);fill:#FFFFFF;" points="745.76,247.39 
		744.35,246.74 743.04,247.56 743.2,245.98 742.03,244.93 743.54,244.61 744.13,243.14 744.9,244.53 746.43,244.66 745.4,245.84 	
		"/>
	<polygon style="clip-path:url(#SVGID_00000122713550101138448350000007690622387238484666_);fill:#FFFFFF;" points="801.33,251.81 
		799.93,251.15 798.61,251.98 798.78,250.39 797.61,249.35 799.11,249.03 799.71,247.56 800.47,248.95 802.01,249.08 800.97,250.26 
			"/>
</g>
</svg>
